<?xml version="1.0" encoding="UTF-8" standalone="no"?>
<!-- Created with Inkscape (http://www.inkscape.org/) -->

<svg
   xmlns:dc="http://purl.org/dc/elements/1.1/"
   xmlns:cc="http://creativecommons.org/ns#"
   xmlns:rdf="http://www.w3.org/1999/02/22-rdf-syntax-ns#"
   xmlns:svg="http://www.w3.org/2000/svg"
   xmlns="http://www.w3.org/2000/svg"
   xmlns:sodipodi="http://sodipodi.sourceforge.net/DTD/sodipodi-0.dtd"
   xmlns:inkscape="http://www.inkscape.org/namespaces/inkscape"
   width="66.11158mm"
   height="97.521767mm"
   viewBox="0 0 234.25367 345.54962"
   id="svg2"
   version="1.1"
   inkscape:version="0.91 r13725"
   sodipodi:docname="lorem-ipsum-logo.svg">
  <defs
     id="defs4" />
  <sodipodi:namedview
     id="base"
     pagecolor="#ffffff"
     bordercolor="#666666"
     borderopacity="1.0"
     inkscape:pageopacity="0.0"
     inkscape:pageshadow="2"
     inkscape:zoom="1.8343182"
     inkscape:cx="129.01269"
     inkscape:cy="172.29553"
     inkscape:document-units="px"
     inkscape:current-layer="g13050"
     showgrid="false"
     fit-margin-top="0"
     fit-margin-left="0"
     fit-margin-right="0"
     fit-margin-bottom="0"
     inkscape:window-width="1920"
     inkscape:window-height="1177"
     inkscape:window-x="-8"
     inkscape:window-y="-8"
     inkscape:window-maximized="1" />
  <metadata
     id="metadata7">
    <rdf:RDF>
      <cc:Work
         rdf:about="">
        <dc:format>image/svg+xml</dc:format>
        <dc:type
           rdf:resource="http://purl.org/dc/dcmitype/StillImage" />
        <dc:title></dc:title>
      </cc:Work>
    </rdf:RDF>
  </metadata>
  <g
     inkscape:label="Capa 1"
     inkscape:groupmode="layer"
     id="layer1"
     transform="translate(-318.65844,-130.13926)"
     style="display:inline">
    <g
       id="g13050"
       transform="translate(114.48979,23.900228)">
      <path
         style="fill:#ed8079"
         d="m 254.72306,305.90065 -22.17448,-22.20017 0,-44.36893 0,-44.36892 44.375,-44.3618 44.375,-44.3618 44.375,44.3618 44.375,44.3618 0,44.39462 0,44.39463 -22.20018,22.17447 -22.20017,22.17448 -44.37535,0 -44.37535,0 z m 87.89128,-44.66136 21.86154,-21.86154 -21.91419,-21.88882 -21.91418,-21.88883 -21.84857,21.87536 -21.84857,21.87537 21.84821,21.875 c 12.01651,12.03125 21.87206,21.875 21.90121,21.875 0.0291,0 9.8907,-9.83769 21.91455,-21.86154 z"
         id="path13064"
         inkscape:connector-curvature="0"
         sodipodi:nodetypes="cccccccccccccccscccccsss" />
      <path
         style="fill:#9b9c9d"
         d="m 254.8149,305.95883 -22.26632,-22.142 0,-43.8021 0,-43.8021 44.37495,-44.36176 44.37495,-44.36175 43.75005,43.73666 43.75005,43.73666 0,44.39471 0,44.39473 -22.20018,22.17447 -22.20017,22.17448 -43.65851,0 -43.6585,0 z m 88.99708,-44.79377 21.8616,-21.93575 -22.40224,-21.90761 -22.40224,-21.9076 -21.96386,21.96386 -21.96386,21.96387 21.8527,21.8795 c 12.01899,12.03372 22.14601,21.8795 22.5045,21.8795 0.35849,0 10.48951,-9.87109 22.5134,-21.93577 z"
         id="path13062"
         inkscape:connector-curvature="0"
         sodipodi:nodetypes="cccccccccccccccscccccsss" />
      <path
         style="fill:#e7574e"
         d="m 254.8149,305.95883 -22.26632,-22.142 0,-43.8021 0,-43.8021 44.37495,-44.36176 44.37495,-44.36175 43.75005,43.73666 43.75005,43.73666 0,44.39471 0,44.39473 -22.20018,22.17447 -22.20017,22.17448 -43.65851,0 -43.6585,0 z m 88.98818,-44.7375 21.8527,-21.8795 -22.1786,-22.1786 -22.1786,-22.1786 -22.1786,22.1786 -22.1786,22.1786 21.8527,21.8795 c 12.01899,12.03372 22.14601,21.8795 22.5045,21.8795 0.35849,0 10.48551,-9.84578 22.5045,-21.8795 z"
         id="path13060"
         inkscape:connector-curvature="0"
         sodipodi:nodetypes="cccccccccccccccscccccsss" />
      <path
         style="fill:#6e6f71"
         d="m 255.36108,305.65605 -21.5625,-21.08316 0,-44.45509 0,-44.4551 2.9262,1.11254 2.92619,1.11254 40.49962,-40.514 40.49962,-40.51399 16.90286,16.87052 16.90287,16.87052 4.97114,0 4.97115,0 22.20018,22.17447 22.20017,22.17448 0,44.40142 0,44.40141 -21.57553,21.54912 -21.57553,21.5491 -44.36197,-0.0558 -44.36197,-0.0558 -21.5625,-21.08315 z m 88.442,-44.43472 21.8527,-21.8795 -22.1786,-22.1786 -22.1786,-22.1786 -22.1786,22.1786 -22.1786,22.1786 21.8527,21.8795 c 12.01899,12.03372 22.14601,21.8795 22.5045,21.8795 0.35849,0 10.48551,-9.84578 22.5045,-21.8795 z"
         id="path13058"
         inkscape:connector-curvature="0"
         sodipodi:nodetypes="ccccccccccccccccccccccscccccsss" />
      <path
         style="fill:#e23026"
         d="m 255.34768,305.2753 -21.5491,-21.57554 0,-44.01852 0,-44.01854 2.9262,1.11254 2.92619,1.11254 40.49962,-40.514 40.49962,-40.51399 16.90286,16.87052 16.90287,16.87052 4.97114,0 4.97115,0 22.20018,22.17447 22.20017,22.17448 0,44.40142 0,44.40141 -21.57553,21.54912 -21.57553,21.5491 -44.37537,0 -44.37536,0 -21.54911,-21.57553 z m 88.4554,-44.05397 21.8527,-21.8795 -22.1786,-22.1786 -22.1786,-22.1786 -22.1786,22.1786 -22.1786,22.1786 21.8527,21.8795 c 12.01899,12.03372 22.14601,21.8795 22.5045,21.8795 0.35849,0 10.48551,-9.84578 22.5045,-21.8795 z"
         id="path13056"
         inkscape:connector-curvature="0" />
      <path
         style="fill:#ac0715"
         d="m 255.04858,304.97583 -21.84821,-21.875 21.84839,-21.87519 21.84839,-21.87518 21.57572,21.54929 c 11.86664,11.8521 21.57571,22.12401 21.57571,22.82648 0,1.24963 -41.29448,43.1246 -42.5268,43.1246 -0.34375,0 -10.45669,-9.84375 -22.4732,-21.875 z m 88.42842,-87.82123 -22.17915,-22.20485 21.87987,-21.85306 21.87986,-21.85306 22.1786,22.1786 22.1786,22.1786 -21.87931,21.87931 -21.87932,21.87931 L 343.477,217.1546 Z"
         id="path13054"
         inkscape:connector-curvature="0" />
      <path
         style="fill:#77040e"
         d="m 238.14501,288.07156 -4.90731,-5.02553 21.06519,-20.9101 c 11.58585,-11.50055 20.62266,-20.06635 20.0818,-19.0351 -1.35673,2.58687 -29.56987,47.90241 -30.54481,49.06063 l -0.78757,0.93564 -4.9073,-5.02554 z m 88.17172,-88.07701 c -2.32225,-2.39595 -3.97946,-4.62425 -3.68271,-4.95179 2.07843,-2.29396 40.45538,-40.69193 40.66966,-40.69193 0.14869,0 -6.78466,11.25 -15.40745,25 -8.62279,13.75 -16.05566,25 -16.51751,25 -0.46185,0 -2.73974,-1.96033 -5.06199,-4.35628 z"
         id="path13052"
         inkscape:connector-curvature="0" />
    </g>
  </g>
  <g
     inkscape:groupmode="layer"
     id="layer3"
     inkscape:label="Texto"
     style="display:inline"
     transform="translate(-57.870068,-56.888205)">
    <g
       transform="scale(0.92949104,1.0758576)"
       style="font-style:normal;font-weight:normal;font-size:74.71689606px;line-height:125%;font-family:sans-serif;letter-spacing:0px;word-spacing:0px;fill:#6e6f71;fill-opacity:1;stroke:none;stroke-width:1px;stroke-linecap:butt;stroke-linejoin:miter;stroke-opacity:1"
       id="text13068">
      <path
         d="m 101.44254,335.93851 -39.182588,0 0,-54.32298 14.009418,0 0,43.81591 25.17317,0 0,10.50707 z"
         style="font-style:normal;font-variant:normal;font-weight:bold;font-stretch:normal;font-family:sans-serif;-inkscape-font-specification:'sans-serif Bold'"
         id="path13173"
         inkscape:connector-curvature="0" />
      <path
         d="m 150.98627,315.47162 q 0,10.10576 -5.91023,15.94301 -5.87374,5.80078 -16.52673,5.80078 -10.653,0 -16.56322,-5.80078 -5.87374,-5.83725 -5.87374,-15.94301 0,-10.17871 5.91022,-15.97949 5.94671,-5.80077 16.52674,-5.80077 10.72596,0 16.56322,5.83725 5.87374,5.83726 5.87374,15.94301 z m -16.16191,9.95982 q 1.2769,-1.56876 1.89711,-3.75773 0.65669,-2.22546 0.65669,-6.12912 0,-3.6118 -0.65669,-6.05616 -0.65669,-2.44435 -1.82414,-3.90366 -1.16745,-1.4958 -2.80918,-2.11601 -1.64173,-0.62021 -3.53884,-0.62021 -1.89711,0 -3.39291,0.51076 -1.45931,0.51076 -2.80918,2.04304 -1.20393,1.42284 -1.93359,3.90367 -0.69317,2.48083 -0.69317,6.23857 0,3.35642 0.62021,5.83726 0.6202,2.44435 1.82414,3.94014 1.16745,1.42284 2.7727,2.07953 1.64173,0.65669 3.72125,0.65669 1.78766,0 3.3929,-0.58373 1.64173,-0.6202 2.7727,-2.04304 z"
         style="font-style:normal;font-variant:normal;font-weight:bold;font-stretch:normal;font-family:sans-serif;-inkscape-font-specification:'sans-serif Bold'"
         id="path13175"
         inkscape:connector-curvature="0" />
      <path
         d="m 190.16886,307.48188 -1.16746,0 q -0.8391,-0.29187 -2.69973,-0.4378 -1.86062,-0.14593 -3.10104,-0.14593 -2.80918,0 -4.96167,0.36483 -2.15249,0.36483 -4.63332,1.24042 l 0,27.43511 -13.13383,0 0,-40.97025 13.13383,0 0,6.01967 q 4.34146,-3.72125 7.55195,-4.92519 3.21049,-1.24042 5.91022,-1.24042 0.69318,0 1.56877,0.0365 0.87558,0.0365 1.53228,0.10945 l 0,12.51362 z"
         style="font-style:normal;font-variant:normal;font-weight:bold;font-stretch:normal;font-family:sans-serif;-inkscape-font-specification:'sans-serif Bold'"
         id="path13177"
         inkscape:connector-curvature="0" />
      <path
         d="m 238.03437,317.87949 -30.06187,0 q 0.29186,4.81574 3.64828,7.36954 3.39291,2.5538 9.95983,2.5538 4.15904,0 8.06271,-1.4958 3.90366,-1.4958 6.1656,-3.21049 l 1.45931,0 0,10.54355 q -4.4509,1.78766 -8.39105,2.59028 -3.94015,0.80262 -8.71941,0.80262 -12.3312,0 -18.89812,-5.54539 -6.56691,-5.5454 -6.56691,-15.79708 0,-10.14223 6.20208,-16.05246 6.23857,-5.9467 17.07398,-5.9467 9.99631,0 15.03094,5.07111 5.03463,5.03464 5.03463,14.52018 l 0,4.59684 z m -13.06086,-7.69788 q -0.10945,-4.12256 -2.04304,-6.20209 Q 220.99688,301.9 216.9108,301.9 q -3.79422,0 -6.23857,1.97007 -2.44435,1.97008 -2.73621,6.31154 l 17.03749,0 z"
         style="font-style:normal;font-variant:normal;font-weight:bold;font-stretch:normal;font-family:sans-serif;-inkscape-font-specification:'sans-serif Bold'"
         id="path13179"
         inkscape:connector-curvature="0" />
      <path
         d="m 287.3592,306.89815 0,29.04036 -13.2068,0 0,-20.46689 q 0,-2.99159 -0.14593,-5.07111 -0.14593,-2.11601 -0.80262,-3.42939 -0.65669,-1.31339 -2.00656,-1.89711 -1.31338,-0.62021 -3.72125,-0.62021 -1.93359,0 -3.75774,0.80262 -1.82414,0.76614 -3.28345,1.64173 l 0,29.04036 -13.13383,0 0,-40.97025 13.13383,0 0,4.52387 q 3.3929,-2.66325 6.49394,-4.15905 3.10105,-1.49579 6.85878,-1.49579 4.0496,0 7.15064,1.82414 3.10105,1.78766 4.85222,5.29001 3.94015,-3.31994 7.6614,-5.21704 3.72126,-1.89711 7.29658,-1.89711 6.63988,0 10.06926,3.97663 3.46588,3.97663 3.46588,11.45562 l 0,26.66897 -13.2068,0 0,-20.46689 q 0,-3.02807 -0.14593,-5.1076 -0.10945,-2.07952 -0.76614,-3.3929 -0.62021,-1.31339 -1.97007,-1.89711 -1.34987,-0.62021 -3.79422,-0.62021 -1.64173,0 -3.21049,0.58373 -1.56877,0.54724 -3.8307,1.86062 z"
         style="font-style:normal;font-variant:normal;font-weight:bold;font-stretch:normal;font-family:sans-serif;-inkscape-font-specification:'sans-serif Bold'"
         id="path13181"
         inkscape:connector-curvature="0" />
    </g>
    <g
       transform="scale(1.0118019,0.98833577)"
       style="font-style:normal;font-weight:normal;font-size:25.81393814px;line-height:125%;font-family:sans-serif;letter-spacing:0px;word-spacing:0px;fill:#6e6f71;fill-opacity:1;stroke:none;stroke-width:1px;stroke-linecap:butt;stroke-linejoin:miter;stroke-opacity:1"
       id="text13072">
      <path
         d="m 96.722257,406.80222 0,-22.5844 2.988658,0 0,22.5844 -2.988658,0 z"
         style="font-style:normal;font-variant:normal;font-weight:normal;font-stretch:normal;font-size:31.55036926px;font-family:Arial;-inkscape-font-specification:Arial;letter-spacing:16.19968224px"
         id="path13162"
         inkscape:connector-curvature="0" />
      <path
         d="m 121.16386,406.80222 0,-22.5844 8.51921,0 q 2.2492,0 3.43542,0.21568 1.66379,0.27729 2.78839,1.06297 1.12459,0.77028 1.80243,2.17217 0.69325,1.4019 0.69325,3.08109 0,2.88082 -1.83325,4.88353 -1.83325,1.98731 -6.62434,1.98731 l -5.79245,0 0,9.18165 -2.98866,0 z m 2.98866,-11.8468 5.83866,0 q 2.89623,0 4.11326,-1.07838 1.21703,-1.07838 1.21703,-3.03487 0,-1.41731 -0.72406,-2.41866 -0.70865,-1.01676 -1.87946,-1.34028 -0.75487,-0.20027 -2.78839,-0.20027 l -5.77704,0 0,8.07246 z"
         style="font-style:normal;font-variant:normal;font-weight:normal;font-stretch:normal;font-size:31.55036926px;font-family:Arial;-inkscape-font-specification:Arial;letter-spacing:16.19968224px"
         id="path13164"
         inkscape:connector-curvature="0" />
      <path
         d="m 157.42144,399.54625 2.8192,-0.24649 q 0.20027,1.6946 0.92433,2.78839 0.73946,1.07838 2.28,1.75622 1.54055,0.66243 3.46623,0.66243 1.71001,0 3.01947,-0.50838 1.30946,-0.50838 1.94109,-1.38649 0.64703,-0.89351 0.64703,-1.94109 0,-1.06297 -0.61622,-1.84865 -0.61622,-0.80108 -2.03352,-1.34027 -0.90892,-0.35433 -4.02083,-1.09379 -3.1119,-0.75487 -4.35974,-1.4173 -1.61757,-0.8473 -2.41866,-2.09514 -0.78567,-1.26325 -0.78567,-2.8192 0,-1.71001 0.97054,-3.18893 0.97054,-1.49433 2.8346,-2.2646 1.86406,-0.77028 4.14407,-0.77028 2.51109,0 4.42137,0.81649 1.92568,0.80109 2.95784,2.37244 1.03217,1.57136 1.1092,3.55866 l -2.86542,0.21568 q -0.23108,-2.14136 -1.57136,-3.23515 -1.32486,-1.09378 -3.92839,-1.09378 -2.71136,0 -3.9592,1.00135 -1.23243,0.98595 -1.23243,2.38785 0,1.21703 0.87811,2.00271 0.8627,0.78567 4.49839,1.61757 3.65109,0.81649 5.00677,1.43271 1.9719,0.90892 2.91163,2.31081 0.93974,1.38649 0.93974,3.20434 0,1.80244 -1.03217,3.4046 -1.03217,1.58676 -2.97325,2.48028 -1.92568,0.87811 -4.34434,0.87811 -3.06569,0 -5.14542,-0.89351 -2.06433,-0.89352 -3.25055,-2.68055 -1.17082,-1.80244 -1.23244,-4.06704 z"
         style="font-style:normal;font-variant:normal;font-weight:normal;font-stretch:normal;font-size:31.55036926px;font-family:Arial;-inkscape-font-specification:Arial;letter-spacing:16.19968224px"
         id="path13166"
         inkscape:connector-curvature="0" />
      <path
         d="m 210.53259,384.21782 2.98866,0 0,13.04842 q 0,3.4046 -0.77028,5.40731 -0.77027,2.00271 -2.78838,3.26596 -2.00271,1.24784 -5.26867,1.24784 -3.17352,0 -5.19164,-1.09379 -2.01811,-1.09378 -2.88082,-3.15811 -0.8627,-2.07974 -0.8627,-5.66921 l 0,-13.04842 2.98866,0 0,13.03301 q 0,2.94245 0.53919,4.34434 0.55459,1.38649 1.87946,2.14136 1.34028,0.75487 3.26596,0.75487 3.29677,0 4.69866,-1.49433 1.4019,-1.49433 1.4019,-5.74624 l 0,-13.03301 z"
         style="font-style:normal;font-variant:normal;font-weight:normal;font-stretch:normal;font-size:31.55036926px;font-family:Arial;-inkscape-font-specification:Arial;letter-spacing:16.19968224px"
         id="path13168"
         inkscape:connector-curvature="0" />
      <path
         d="m 234.61986,406.80222 0,-22.5844 4.49839,0 5.34569,15.99086 q 0.73946,2.23379 1.07838,3.34298 0.38514,-1.23243 1.20163,-3.62028 l 5.40731,-15.71356 4.02083,0 0,22.5844 -2.88082,0 0,-18.9025 -6.56273,18.9025 -2.69595,0 -6.53191,-19.22601 0,19.22601 -2.88082,0 z"
         style="font-style:normal;font-variant:normal;font-weight:normal;font-stretch:normal;font-size:31.55036926px;font-family:Arial;-inkscape-font-specification:Arial;letter-spacing:16.19968224px"
         id="path13170"
         inkscape:connector-curvature="0" />
    </g>
  </g>
</svg>
